Coordinates
version=1
nRows=16
nColumns=40
inDegrees=yes

Units are S.I. units (second, meters, Newtons, ...)
Angles are in degrees.

endheader
time	pelvis_tilt	pelvis_list	pelvis_rotation	pelvis_tx	pelvis_ty	pelvis_tz	hip_flexion_r	hip_adduction_r	hip_rotation_r	knee_angle_r	knee_angle_r_beta	ankle_angle_r	subtalar_angle_r	mtp_angle_r	hip_flexion_l	hip_adduction_l	hip_rotation_l	knee_angle_l	knee_angle_l_beta	ankle_angle_l	subtalar_angle_l	mtp_angle_l	lumbar_extension	lumbar_bending	lumbar_rotation	arm_flex_r	arm_add_r	arm_rot_r	elbow_flex_r	pro_sup_r	wrist_flex_r	wrist_dev_r	arm_flex_l	arm_add_l	arm_rot_l	elbow_flex_l	pro_sup_l	wrist_flex_l	wrist_dev_l
     26.03828571	     -1.08655317	     -7.59243438	     -1.52807886	      0.97926792	      0.91879447	      0.57721860	     10.39780970	      7.84407490	    -10.56411852	     25.39519507	     25.39519507	     16.50098368	    -10.79195693	     -0.17262191	     27.64515142	    -18.09914821	      2.04902048	     72.73054945	     72.73054945	      3.61545437	    -19.60405859	     22.25487867	    -10.70913778	      6.86110539	     -0.45392668	     17.05761563	    -19.28055749	    -12.97593851	     80.89836758	     45.06813492	      0.00000000	      0.00000000	      6.15863769	     -9.25794006	     -2.07169144	     35.49864201	     46.45729727	      0.00000000	      0.00000000
     26.05657143	     -0.87766163	     -7.59522587	     -0.92664758	      0.97832925	      0.91844496	      0.57723355	      9.94099333	      7.87955505	    -10.73787437	     25.49930562	     25.49930562	     16.80583515	    -11.30119922	     -0.03893689	     28.87125646	    -18.25360212	      1.93408151	     72.28232581	     72.28232581	      5.38219155	    -19.64901642	     22.89429565	    -10.88334053	      6.75548909	     -0.48546955	     19.59769064	    -18.96945522	    -13.02469541	     82.82772079	     45.02306630	      0.00000000	      0.00000000	      4.14072923	     -8.79439789	     -1.61073560	     33.48796396	     46.36140362	      0.00000000	      0.00000000
     26.07485714	     -0.69398304	     -7.52413464	     -0.33103563	      0.97734010	      0.91847998	      0.57684705	      9.40783079	      7.82595814	    -10.93298917	     25.41364045	     25.41364045	     17.05217530	    -11.69356359	      0.10951772	     29.87599367	    -18.20272456	      1.70257560	     71.04952913	     71.04952913	      7.51596022	    -19.66818158	     23.51889620	    -11.00436135	      6.54789173	     -0.33545828	     22.07768548	    -18.89250210	    -12.93578301	     84.55769029	     44.97949176	      0.00000000	      0.00000000	      2.28114945	     -8.28587145	     -1.14594233	     31.62503972	     46.26540618	      0.00000000	      0.00000000
     26.09314286	     -0.70625041	     -7.34195431	      0.26132694	      0.97613739	      0.91875897	      0.57592283	      8.97278665	      7.62333932	    -11.18529473	     25.08277074	     25.08277074	     17.23229576	    -11.88948420	      0.31457408	     30.84078689	    -17.80357925	      1.50089269	     69.01620235	     69.01620235	      9.80533221	    -19.67126845	     24.32561910	    -10.99073592	      6.35028574	     -0.29843815	     24.52980429	    -18.84913408	    -12.48636943	     86.37657493	     44.92637717	      0.00000000	      0.00000000	      0.57105440	     -7.89045136	     -0.44655939	     29.41497424	     46.13280733	      0.00000000	      0.00000000
     26.11142857	     -0.71124736	     -7.05056823	      0.83792336	      0.97486940	      0.91937648	      0.57454452	      8.46787083	      7.26584337	    -11.49085693	     24.65283364	     24.65283364	     17.31135528	    -11.96710676	      0.43193470	     31.46294417	    -17.12732012	      1.24802010	     66.19486178	     66.19486178	     11.73297398	    -19.65448590	     24.16744402	    -11.03814039	      6.00181873	      0.09242749	     26.87807339	    -19.02490582	    -12.41591039	     87.86972704	     44.89147792	      0.00000000	      0.00000000	     -1.15380714	     -7.47822133	     -0.06883053	     28.20927704	     46.04449956	      0.00000000	      0.00000000
     26.12971429	     -0.86562913	     -6.71018781	      1.44658783	      0.97346689	      0.92014727	      0.57274187	      8.00332169	      6.83066152	    -11.91565853	     23.99615497	     23.99615497	     17.33671767	    -11.84263381	      0.49762847	     31.96383626	    -16.14918210	      1.21234642	     62.66050944	     62.66050944	     13.18823115	    -19.61456730	     23.67628918	    -10.94735827	      5.63608490	      0.26272004	     29.23380505	    -19.06097451	    -12.11006435	     89.58904620	     44.84332871	      0.00000000	      0.00000000	     -2.90991007	     -7.18325281	      0.36734715	     27.09978139	     45.94160467	      0.00000000	      0.00000000
     26.14800000	     -1.13337039	     -6.34307440	      2.05127377	      0.97192761	      0.92099772	      0.57054246	      7.58964040	      6.33494977	    -12.40593828	     23.20853318	     23.20853318	     17.28274626	    -11.52143473	      0.44013462	     32.27255660	    -14.93161242	      1.43345822	     58.50366583	     58.50366583	     14.02744345	    -19.53824434	     22.66414173	    -10.79426384	      5.25844936	      0.41963515	     31.56103750	    -19.22462191	    -11.58742838	     91.29323265	     44.79251333	      0.00000000	      0.00000000	     -4.62329461	     -6.97361335	      0.89334986	     26.30400452	     45.81876657	      0.00000000	      0.00000000
     26.16628571	     -1.40935969	     -5.93105661	      2.66009529	      0.97048608	      0.92191243	      0.56801440	      7.08058270	      5.76176709	    -13.05477761	     22.26651649	     22.26651649	     17.16393687	    -11.03748471	      0.11325719	     32.22437655	    -13.59869346	      1.76897661	     53.79784344	     53.79784344	     14.01104701	    -19.41134197	     20.51953009	    -10.61453039	      4.82569586	      0.50400315	     33.87053120	    -19.43351116	    -10.72932377	     93.04447327	     44.73882003	      0.00000000	      0.00000000	     -6.41853554	     -6.90773332	      1.65600027	     26.04211094	     45.64652380	      0.00000000	      0.00000000
     26.18457143	     -1.72030346	     -5.53746978	      3.22345614	      0.96901617	      0.92275310	      0.56525267	      6.58201584	      5.22010290	    -13.60253873	     21.27699408	     21.27699408	     16.89421562	    -10.67368373	     -0.55672535	     31.86552200	    -12.27536968	      2.25841529	     48.64632905	     48.64632905	     12.92349748	    -19.20265525	     16.83220797	    -10.42738496	      4.39835572	      0.72748334	     36.16430813	    -19.80541323	     -9.95039363	     94.36543863	     44.72255338	      0.00000000	      0.00000000	     -8.31079372	     -7.00247571	      2.87245494	     26.64283320	     45.39623766	      0.00000000	      0.00000000
     26.20285714	     -2.21850000	     -5.17559810	      3.76053167	      0.96751603	      0.92322237	      0.56228980	      6.30986046	      4.73266129	    -13.95905389	     20.33321093	     20.33321093	     16.80335390	    -10.54472672	     -0.44023823	     31.65528082	    -10.89380462	      3.16245177	     43.75044918	     43.75044918	     12.78628796	    -18.65745088	     16.93003628	    -10.02507284	      3.94109356	      1.17452044	     38.32109682	    -20.13416204	     -9.98203868	     95.50308342	     44.70038665	      0.00000000	      0.00000000	     -9.57224603	     -6.90468689	      2.98539149	     26.32167588	     45.35630670	      0.00000000	      0.00000000
     26.22114286	     -2.29784647	     -4.89764942	      4.31382034	      0.96651706	      0.92415492	      0.55915980	      5.38085812	      4.34127458	    -14.61209156	     19.11726312	     19.11726312	     16.75132908	     -9.75566853	     -0.60822992	     30.69266776	     -9.81257306	      3.99790117	     38.75440793	     38.75440793	     12.08861182	    -17.63351501	     15.95148603	    -10.14461603	      3.62186670	      1.23611412	     40.36257188	    -20.02903141	     -9.31709758	     97.26449225	     44.63997765	      0.00000000	      0.00000000	    -10.99759200	     -6.92854416	      3.17523899	     26.29106750	     45.29894313	      0.00000000	      0.00000000
     26.23942857	     -2.62301867	     -4.83789890	      4.85869803	      0.96556221	      0.92410663	      0.55591870	      4.79224135	      4.10384749	    -15.59180034	     18.00640614	     18.00640614	     16.44982543	     -8.71426732	     -1.81383538	     29.97800174	     -9.21539765	      4.47991251	     34.05141072	     34.05141072	      9.89519739	    -16.03763847	     10.75323427	     -9.94654534	      3.55155858	      1.17936754	     42.55672489	    -20.51042154	     -7.55395186	     98.80988679	     44.58113648	      0.00000000	      0.00000000	    -12.86706366	     -7.04889121	      3.74846685	     27.92814060	     45.17261299	      0.00000000	      0.00000000
     26.25771429	     -2.92268377	     -4.75382343	      5.29156833	      0.96475546	      0.92395528	      0.55270546	      4.28307347	      3.94813168	    -15.81800826	     17.11102515	     17.11102515	     16.43608218	     -8.57386451	     -1.82495035	     29.42676112	     -8.69378844	      4.81133688	     30.36609585	     30.36609585	      9.62912014	    -13.76705026	     10.81360812	     -9.72949468	      3.33759202	      1.51641562	     44.51364022	    -20.58790980	     -7.51662087	     99.71902542	     44.56644120	      0.00000000	      0.00000000	    -13.83677451	     -7.15602728	      3.84461743	     27.79739461	     45.14546424	      0.00000000	      0.00000000
     26.27600000	     -3.10909744	     -4.84918508	      5.74610732	      0.96434828	      0.92351120	      0.54941351	      3.55189359	      3.97058017	    -16.41012031	     16.04189484	     16.04189484	     16.20103482	     -7.99409272	     -2.75121440	     28.91123036	     -8.52413647	      4.76470991	     27.45225181	     27.45225181	      8.82692646	    -11.28131807	      8.82899824	     -9.61951413	      3.32901405	      1.47471255	     46.54328585	    -20.65903871	     -6.32969369	    100.77689682	     44.55084593	      0.00000000	      0.00000000	    -15.25229251	     -7.33976825	      4.25496075	     29.00145212	     45.08770504	      0.00000000	      0.00000000
     26.29428571	     -3.30761285	     -4.95543024	      6.19181290	      0.96404910	      0.92290314	      0.54592457	      2.92371807	      4.00006898	    -16.85888449	     15.17527120	     15.17527120	     16.23841849	     -7.58832077	     -2.83344182	     28.63392884	     -8.34843870	      4.66276301	     25.51840212	     25.51840212	      8.65466217	     -9.06278609	      8.57322940	     -9.47914152	      3.31811237	      1.56418003	     48.19254529	    -20.52657492	     -6.02169571	    101.83592426	     44.52937266	      0.00000000	      0.00000000	    -15.94268498	     -7.36215683	      4.33979952	     29.01803086	     45.07763680	      0.00000000	      0.00000000
     26.31257143	     -3.48900678	     -5.01486821	      6.56111702	      0.96392710	      0.92217219	      0.54239603	      2.40806263	      3.94130788	    -17.22414272	     14.59526294	     14.59526294	     16.36151202	     -7.25931898	     -2.93167777	     28.45314843	     -8.17123736	      4.37198647	     24.34317947	     24.34317947	      8.48003191	     -7.32110211	      8.10996303	     -9.36976284	      3.19265622	      1.68726131	     49.66045261	    -20.43568681	     -5.65625289	    102.74891624	     44.50597782	      0.00000000	      0.00000000	    -16.45677933	     -7.46481215	      4.33197324	     29.12074192	     45.08061397	      0.00000000	      0.00000000
